<svg xmlns="http://www.w3.org/2000/svg" viewBox="0 0 800 1000" role="img" aria-labelledby="title desc">
  <title id="title">Espaco reservado para a foto da Vivi</title>
  <desc id="desc">Imagem decorativa temporaria em azul marinho, marrom escuro, lirios brancos e baloes brancos.</desc>
  <defs>
    <linearGradient id="bg" x1="0" x2="1" y1="0" y2="1">
      <stop offset="0%" stop-color="#071326"/>
      <stop offset="55%" stop-color="#10213d"/>
      <stop offset="100%" stop-color="#2a1710"/>
    </linearGradient>
    <radialGradient id="balloon" cx="35%" cy="28%" r="68%">
      <stop offset="0%" stop-color="#ffffff"/>
      <stop offset="58%" stop-color="#f7f4ec"/>
      <stop offset="100%" stop-color="#d8d1c4"/>
    </radialGradient>
  </defs>
  <rect width="800" height="1000" fill="url(#bg)"/>
  <circle cx="120" cy="130" r="86" fill="url(#balloon)" opacity="0.95"/>
  <circle cx="217" cy="176" r="62" fill="url(#balloon)" opacity="0.92"/>
  <circle cx="676" cy="145" r="76" fill="url(#balloon)" opacity="0.9"/>
  <path d="M128 216 C120 350 168 430 154 558" stroke="#d8b980" stroke-width="2" fill="none" opacity="0.45"/>
  <path d="M674 222 C650 330 692 412 660 520" stroke="#d8b980" stroke-width="2" fill="none" opacity="0.45"/>
  <g transform="translate(130 690)" fill="#f8f7f0">
    <ellipse cx="80" cy="38" rx="24" ry="66" transform="rotate(-40 80 38)"/>
    <ellipse cx="122" cy="34" rx="24" ry="66" transform="rotate(35 122 34)"/>
    <ellipse cx="102" cy="58" rx="22" ry="70"/>
    <path d="M102 96 C96 140 82 174 54 222" stroke="#d8b980" stroke-width="8" fill="none"/>
  </g>
  <g transform="translate(515 678) scale(.88)" fill="#f8f7f0">
    <ellipse cx="80" cy="38" rx="24" ry="66" transform="rotate(-40 80 38)"/>
    <ellipse cx="122" cy="34" rx="24" ry="66" transform="rotate(35 122 34)"/>
    <ellipse cx="102" cy="58" rx="22" ry="70"/>
    <path d="M102 96 C96 140 82 174 54 222" stroke="#d8b980" stroke-width="8" fill="none"/>
  </g>
  <rect x="86" y="250" width="628" height="430" rx="0" fill="none" stroke="#d8b980" stroke-width="2" opacity="0.7"/>
  <text x="400" y="443" text-anchor="middle" fill="#fffaf1" font-family="Georgia, serif" font-size="76">Vivi's</text>
  <text x="400" y="524" text-anchor="middle" fill="#fffaf1" font-family="Georgia, serif" font-size="78">Birthday</text>
  <text x="400" y="588" text-anchor="middle" fill="#d8b980" font-family="Arial, sans-serif" font-size="24" letter-spacing="5">SUA FOTO AQUI</text>
</svg>
